<?xml version="1.0" encoding="utf-8"?>
<!-- Generator: Adobe Illustrator 24.2.1, SVG Export Plug-In . SVG Version: 6.00 Build 0)  -->
<svg version="1.1" id="Layer_1" xmlns="http://www.w3.org/2000/svg" xmlns:xlink="http://www.w3.org/1999/xlink" x="0px" y="0px"
	 viewBox="0 0 1080 1080" style="enable-background:new 0 0 1080 1080;" xml:space="preserve">
<style type="text/css">
	.st0{fill:#FFFFFF;}
	.st1{fill:#002D5D;}
	.st2{font-family:'Avenir-Medium';}
	.st3{font-size:39.6019px;}
	.st4{fill:#C2A01E;}
	.st5{fill:#194F90;}
	.st6{font-family:'Avenir-Black';}
	.st7{font-size:88.258px;}
	.st8{font-size:38.7577px;}
</style>
<rect x="-7" y="-11" class="st0" width="1097" height="1097"/>
<g>
	<text transform="matrix(1 -2.259977e-03 2.259977e-03 1 634.9622 512.0145)"><tspan x="0" y="0" class="st1 st2 st3">KÜTÜPHANE ve</tspan><tspan x="0" y="47.52" class="st1 st2 st3">DOKÜMANTASYON</tspan><tspan x="0" y="95.04" class="st1 st2 st3">DAİRE BAŞKANLIĞI</tspan></text>
	<g>
		<g>
			<path class="st4" d="M164.93,628.93C115.89,628.93,76,589.05,76,540c0-49.03,39.89-88.93,88.93-88.93
				c49.04,0,88.94,39.9,88.94,88.93C253.87,589.05,213.96,628.93,164.93,628.93 M164.93,453.43c-47.74,0-86.58,38.83-86.58,86.57
				c0,47.74,38.84,86.59,86.58,86.59c47.74,0,86.58-38.85,86.58-86.59C251.51,492.26,212.66,453.43,164.93,453.43"/>
		</g>
		<g>
			<path class="st4" d="M164.93,455.25c-46.73,0-84.75,38.02-84.75,84.75c0,46.73,38.02,84.76,84.75,84.76
				c46.73,0,84.76-38.03,84.76-84.76C249.69,493.27,211.66,455.25,164.93,455.25"/>
		</g>
		<g>
			<path class="st1" d="M223.04,540c0,32.09-26.01,58.11-58.11,58.11c-32.09,0-58.11-26.02-58.11-58.11
				c0-32.09,26.02-58.11,58.11-58.11C197.03,481.89,223.04,507.91,223.04,540"/>
		</g>
		<g>
			<path class="st5" d="M127.56,539.64c0.01,0.01,1.3,1.77,2.42,2.79c1.04,0.94,2.11,1,2.12,1c1.69,0,2.28-0.51,2.29-0.51
				c0.08-0.08,0.2-0.12,0.31-0.12c0.11,0.01,0.22,0.06,0.29,0.14l0.24,0.29l1.92-4.73c-0.14-0.07-0.36-0.17-0.63-0.29
				c-0.75-0.33-3.63-2.06-3.75-2.14c-0.37-0.18-9.53-4.93-8.86-9.81c0.53-3.87,2.55-4.21,3.51-4.13l0.18-2.5
				c0.69-3.9,1.1-4.8,1.58-5.86c0.11-0.25,0.22-0.51,0.36-0.81c0.58-1.47,0.49-4.56,0.4-5.23c-0.04,0.07-0.07,0.16-0.11,0.25
				c-0.16,0.37-0.25,0.93-0.33,1.54c-0.12,0.77-0.26,1.64-0.56,2.38l-0.06,0.11c-0.61,1.51-2.53,6.21-5.34,5.95
				c-0.37-0.03-0.71-0.22-0.96-0.55c-1.07-1.38-0.81-5.38-0.5-8.05c-0.65,1.44-1.36,3.44-1.51,5.48c-0.3,3.71,1.69,5.22,1.78,5.29
				c0.11,0.08,0.17,0.21,0.17,0.34c0,0.14-0.07,0.26-0.18,0.33c-0.04,0.01-3.55,2.3-4.43,5.11c-0.74,2.35,1.89,4.55,2.88,5.36
				c1.32,1.1,2.89,3.01,3.24,3.93c0.06,0.17,0.12,0.33,0.17,0.5c0.18,0.54,0.35,1.04,0.62,1.08
				C125.51,536.9,126.84,538.62,127.56,539.64"/>
		</g>
		<g>
			<path class="st4" d="M132.1,543.64c-0.01,0-1.16-0.06-2.26-1.06c-1.12-1.02-2.43-2.8-2.45-2.82l0,0
				c-1.14-1.61-2.16-2.7-2.62-2.78c-0.39-0.06-0.56-0.59-0.77-1.2c-0.06-0.19-0.11-0.35-0.18-0.52c-0.34-0.89-1.89-2.76-3.18-3.84
				c-1.02-0.84-3.73-3.08-2.95-5.58c0.85-2.71,4.01-4.93,4.52-5.22l0,0c0.06-0.04,0.09-0.1,0.09-0.16c0-0.08-0.03-0.14-0.08-0.17
				c-0.23-0.17-2.17-1.76-1.87-5.48c0.16-2.11,0.92-4.18,1.53-5.55l0.55-1.24l-0.16,1.35c-0.48,4.09-0.32,6.9,0.46,7.9
				c0.21,0.28,0.5,0.45,0.81,0.47c1.76,0.16,3.49-1.8,5.13-5.83l0.07-0.13c0.29-0.72,0.43-1.64,0.54-2.31
				c0.09-0.6,0.18-1.18,0.35-1.59l0.03-0.08c0.03-0.08,0.06-0.15,0.09-0.2l0.31-0.48l0.08,0.57c0.08,0.56,0.21,3.75-0.41,5.33
				l-0.36,0.82c-0.47,1.02-0.87,1.9-1.57,5.81l-0.19,2.69l-0.21-0.02c-0.82-0.07-2.77,0.18-3.29,3.95c-0.65,4.76,8.65,9.55,8.75,9.6
				c0.13,0.09,2.99,1.81,3.74,2.14c0.28,0.12,0.5,0.22,0.64,0.29l0.18,0.08l-2.12,5.23l-0.47-0.55c-0.03-0.04-0.09-0.06-0.15-0.07
				c-0.04,0-0.11,0.03-0.15,0.06l-0.08,0.06C134.23,543.27,133.54,543.64,132.1,543.64z M127.73,539.52
				c0.04,0.06,1.3,1.77,2.39,2.75c0.98,0.88,1.98,0.95,1.99,0.95c1.47,0,2.06-0.4,2.14-0.46c0.12-0.11,0.28-0.17,0.45-0.17
				c0.19,0.02,0.34,0.09,0.44,0.21l0.02,0.03l1.72-4.23c-0.12-0.06-0.27-0.12-0.45-0.2c-0.78-0.34-3.68-2.09-3.79-2.16
				c-0.07-0.03-9.65-4.88-8.95-10.01c0.52-3.79,2.45-4.32,3.48-4.32c0.01,0,0.03,0,0.04,0l0.17-2.3c0.71-3.98,1.12-4.89,1.6-5.93
				l0.36-0.81c0.38-0.98,0.47-2.73,0.45-3.94c-0.03,0.2-0.07,0.41-0.1,0.61c-0.11,0.69-0.26,1.64-0.57,2.42l-0.07,0.13
				c-0.63,1.55-2.57,6.32-5.54,6.06c-0.43-0.04-0.82-0.26-1.11-0.64c-0.91-1.17-0.92-4.09-0.69-6.76c-0.44,1.19-0.84,2.62-0.95,4.08
				c-0.29,3.5,1.49,4.95,1.7,5.11c0.15,0.11,0.25,0.3,0.25,0.51c0,0.2-0.1,0.39-0.27,0.51l-0.04,0.02
				c-0.25,0.16-3.48,2.32-4.32,4.98c-0.7,2.24,1.85,4.35,2.82,5.14c1.36,1.14,2.94,3.05,3.31,4.02c0.06,0.18,0.12,0.34,0.17,0.51
				c0.12,0.35,0.31,0.92,0.45,0.94C125.64,536.71,126.99,538.48,127.73,539.52z"/>
		</g>
		<g>
			<path class="st5" d="M143.49,549.63c2.03,0.56,4.27,0.58,5.19,0.58c-0.18-1.34-0.83-4.65-1.23-6.56
				c-0.32-0.18-1.08-0.65-2.86-1.83c-2.11-1.4-4.05-2.15-4.82-2.43l-2.66,6.39c0.19,0.24,0.53,0.66,0.76,0.89
				C138.16,546.95,140.83,548.89,143.49,549.63"/>
		</g>
		<g>
			<path class="st4" d="M148.92,550.42h-0.24c-2.06,0-3.82-0.2-5.25-0.59h0c-2.64-0.73-5.33-2.65-5.71-3
				c-0.25-0.25-0.59-0.68-0.78-0.91l-0.08-0.1l2.79-6.69l0.19,0.07c0.95,0.34,2.85,1.11,4.86,2.45c1.49,0.98,2.45,1.6,2.85,1.82
				l0.08,0.05l0.02,0.09c0.4,1.92,1.06,5.25,1.23,6.58L148.92,550.42z M143.54,549.43c1.34,0.37,2.98,0.56,4.9,0.57
				c-0.21-1.42-0.8-4.4-1.18-6.22c-0.45-0.26-1.37-0.85-2.79-1.79c-1.86-1.23-3.61-1.97-4.59-2.34l-2.54,6.09
				c0.17,0.21,0.47,0.57,0.67,0.78C138.36,546.85,141.01,548.73,143.54,549.43L143.54,549.43z"/>
		</g>
		<g>
			<path class="st5" d="M211.4,512.34l-5.17-7.09c-0.2,0.15-0.5,0.33-0.93,0.51c-0.68,0.3-1.56,0.35-2.18,0.35h-0.21
				c-0.22,0.34-0.75,0.95-1.71,1.43c-0.84,0.42-2.09,0.62-3.73,0.62c-1.05,0-1.98-0.09-2.4-0.13c-2.32,3.02-4.49,4.39-5.53,4.94
				l9.18,7.43L211.4,512.34z"/>
		</g>
		<g>
			<path class="st4" d="M198.7,520.67l-9.54-7.72l0.28-0.15c1.08-0.56,3.22-1.94,5.47-4.88l0.07-0.09l0.12,0.01
				c0.81,0.09,1.64,0.13,2.38,0.13c1.61,0,2.83-0.2,3.63-0.6c0.99-0.5,1.47-1.12,1.63-1.36l0.06-0.09h0.32
				c0.87,0,1.59-0.12,2.09-0.34c0.35-0.15,0.65-0.32,0.89-0.49l0.17-0.12l5.43,7.44L198.7,520.67z M189.91,513.02l8.82,7.14
				l12.37-7.87l-4.92-6.75c-0.23,0.15-0.49,0.29-0.79,0.42c-0.56,0.25-1.32,0.37-2.26,0.37h-0.1c-0.23,0.31-0.76,0.92-1.73,1.41
				c-0.86,0.43-2.14,0.64-3.82,0.64c-0.72,0-1.52-0.04-2.31-0.12C193.07,510.97,191.07,512.37,189.91,513.02z"/>
		</g>
		<g>
			<path class="st5" d="M176.52,541.38c-0.06-0.18-1.13-4.19,1.51-5.16c0.58-0.21,1.04-0.29,1.5-0.37c1.38-0.26,2.58-0.47,6.38-4.59
				c2.83-1.99,7.09-5.27,7.52-6.42c0.02-0.04,0.04-0.09,0.07-0.12c0.55-0.67,1.73-1.97,2.68-2.57l-8.34-6.25
				c-0.53,0.98-8.59,7.31-19.65,10.33l-0.11,0.04c-0.63,0.22-2.11,0.73-4.77,4.25c-2.96,3.94-6.87,10.11-6.9,10.18
				c-0.11,0.16-2.37,3.36-5.72,3.7l1.28,6.08c0,0,0.29,0.67,2.09,0.52c2.26-0.2,3.71-0.62,3.72-0.62c0.22-0.06,0.43,0.05,0.51,0.25
				c0.08,0.2,1.74,4.92-1.12,8.44c-0.13,0.14-2.4,2.26-6.62,2.69c-3.36,0.34-13.68,2.04-17.95,3.82c-3.42,1.43-3.48,1.48-5.07,2.43
				c-0.51,0.32-1.17,0.72-2.16,1.3l-7.42,5.13c10.57,14.35,27.57,23.67,46.76,23.67c18.34,0,34.69-8.53,45.33-21.82l-6.29-7.91
				c-1.37-0.16-10.1-1.86-18.86-9.27C184.88,559.11,181.54,556.23,176.52,541.38"/>
		</g>
		<g>
			<path class="st4" d="M164.7,598.32c-9.42,0-18.4-2.18-26.71-6.48c-7.92-4.1-14.91-10.07-20.22-17.28l-0.13-0.17l7.59-5.26
				c0.85-0.5,1.54-0.91,2.17-1.3l0.05-0.03c1.56-0.94,1.65-1,5.06-2.42c4.21-1.76,14.53-3.49,18.01-3.84
				c4.23-0.43,6.47-2.61,6.49-2.63c2.8-3.45,1.09-8.18,1.08-8.22c-0.03-0.09-0.13-0.16-0.25-0.12l-0.03,0.01
				c-0.53,0.14-1.86,0.45-3.73,0.62c-1.89,0.17-2.27-0.56-2.3-0.64l-0.01-0.04l-1.33-6.31l0.23-0.02c3.16-0.32,5.33-3.28,5.57-3.61
				c0.05-0.1,3.98-6.28,6.9-10.18c2.7-3.58,4.22-4.1,4.87-4.32l0.12-0.04c10.93-2.99,19.01-9.26,19.53-10.23l0.11-0.21l8.78,6.58
				l-0.25,0.16c-1.06,0.67-2.37,2.23-2.63,2.53c-0.01,0.01-0.02,0.03-0.03,0.07c-0.48,1.26-4.98,4.67-7.58,6.49
				c-3.82,4.14-5.05,4.37-6.46,4.63l-0.05,0.01c-0.45,0.08-0.88,0.16-1.43,0.36c-2.52,0.93-1.4,4.86-1.39,4.9l0,0
				c4.93,14.58,8.27,17.61,8.3,17.64c3.68,3.11,7.77,5.58,12.14,7.31c3.17,1.26,5.71,1.8,6.61,1.91l0.08,0.01l6.77,8.08l-0.11,0.13
				C199.52,590.12,182.39,598.32,164.7,598.32z M118.24,574.49c5.25,7.08,12.15,12.95,19.95,16.98c8.25,4.27,17.17,6.43,26.52,6.43
				c17.51,0,34.46-8.09,45.37-21.64l-6.44-7.69c-0.95-0.14-9.78-1.61-18.88-9.31c-0.14-0.12-3.44-3.08-8.43-17.82l0,0
				c-0.03-0.1-1.23-4.37,1.64-5.42c0.59-0.21,1.05-0.3,1.5-0.38l0.08,0.2l-0.04-0.2c1.35-0.25,2.51-0.47,6.25-4.52l0.03-0.03
				c3.42-2.4,7.08-5.34,7.45-6.32c0.03-0.07,0.06-0.13,0.11-0.19c0.23-0.28,1.41-1.67,2.47-2.44l-7.94-5.95
				c-0.6,0.72-2.72,2.43-5.81,4.29c-3.03,1.82-7.88,4.33-13.82,5.95l-0.1,0.03c-0.61,0.21-2.04,0.7-4.66,4.18
				c-2.86,3.81-6.75,9.92-6.89,10.15c-0.25,0.36-2.43,3.33-5.65,3.78l1.22,5.83c0.05,0.07,0.42,0.51,1.88,0.38
				c1.86-0.17,3.18-0.48,3.66-0.61l0.03-0.01c0.31-0.09,0.63,0.07,0.75,0.37c0.02,0.05,1.81,5-1.15,8.65
				c-0.04,0.04-2.31,2.31-6.76,2.77c-3.46,0.35-13.72,2.06-17.89,3.81c-3.37,1.41-3.47,1.47-5,2.39l-0.05,0.03
				c-0.63,0.39-1.32,0.8-2.16,1.3L118.24,574.49z"/>
		</g>
		<g>
			<polygon class="st1" points="98.38,529.06 88.94,526.57 89.45,524.61 93.06,525.56 94.03,521.89 90.42,520.94 90.94,518.99 
				100.38,521.47 99.86,523.43 95.65,522.33 94.68,525.99 98.9,527.1 			"/>
		</g>
		<g>
			<path class="st1" d="M94.03,510.17l0.98-2.08l10.31,1.01l-0.93,2.01l-2.09-0.27l-1.53,3.26l1.54,1.44l-0.9,1.94L94.03,510.17z
				 M99.48,512.88l1.06-2.28l-4-0.51L99.48,512.88z"/>
		</g>
		<g>
			<polygon class="st1" points="99.09,500.31 100.25,498.65 106.83,503.22 109.63,499.23 111.06,500.23 107.11,505.9 			"/>
		</g>
		<g>
			<path class="st1" d="M104.34,488.47l1.17-1.27l1.15,1.06l-1.16,1.27L104.34,488.47z M114.76,495.52l-1.37,1.49l-7.19-6.61
				l1.37-1.49L114.76,495.52z"/>
		</g>
		<g>
			<path class="st1" d="M113.33,484.04c0.11-1.11,0.63-2.06,1.56-2.83c1.27-1.03,2.52-1.37,3.79-1.01c0.7,0.21,1.26,0.54,1.66,0.99
				l-1.57,1.29c-0.4-0.29-0.76-0.46-1.06-0.5c-0.55-0.09-1.1,0.08-1.66,0.52c-0.56,0.46-0.81,1.05-0.76,1.79
				c0.05,0.72,0.42,1.51,1.11,2.37c0.7,0.85,1.39,1.34,2.08,1.49c0.69,0.14,1.3,0.01,1.82-0.43c0.55-0.44,0.82-0.96,0.8-1.56
				c0-0.32-0.12-0.72-0.32-1.19l1.57-1.28c0.54,0.94,0.73,1.88,0.6,2.86c-0.13,0.98-0.59,1.78-1.38,2.42l0.06,0.71
				c0.1-0.12,0.17-0.2,0.2-0.25c0.04-0.05,0.09-0.09,0.14-0.13c0.28-0.23,0.55-0.34,0.83-0.35c0.26,0.01,0.51,0.13,0.72,0.39
				c0.25,0.32,0.33,0.66,0.22,1.06c-0.11,0.39-0.36,0.74-0.78,1.08c-0.17,0.14-0.41,0.28-0.71,0.4c-0.14,0.07-0.35,0.14-0.62,0.22
				l-0.16-0.59c0.24-0.11,0.4-0.18,0.49-0.22c0.2-0.09,0.34-0.18,0.45-0.26c0.21-0.17,0.32-0.34,0.34-0.5
				c0.02-0.16-0.01-0.28-0.09-0.39c-0.11-0.14-0.25-0.2-0.4-0.17c-0.14,0.02-0.27,0.08-0.39,0.17c-0.06,0.05-0.12,0.12-0.17,0.18
				c-0.05,0.08-0.12,0.16-0.18,0.25l-0.39-0.03l-0.13-1.14c-0.81,0.65-1.8,0.88-2.97,0.68c-1.18-0.21-2.27-0.92-3.27-2.14
				C113.69,486.63,113.21,485.32,113.33,484.04"/>
		</g>
		<g>
			<path class="st1" d="M129.73,471.07l1.92-0.81l2.31,5.53c0.26,0.63,0.53,1.04,0.78,1.27c0.45,0.41,1.04,0.45,1.81,0.14
				c0.76-0.33,1.14-0.78,1.16-1.38c0.03-0.34-0.1-0.83-0.34-1.45l-2.31-5.54l1.91-0.79l2.31,5.54c0.4,0.96,0.57,1.76,0.5,2.43
				c-0.16,1.2-1.01,2.14-2.56,2.78c-1.55,0.66-2.82,0.6-3.79-0.13c-0.52-0.43-0.98-1.1-1.38-2.06L129.73,471.07z M130.38,468.11
				l1.6-0.67l0.6,1.45l-1.6,0.66L130.38,468.11z M132.83,467.08l1.59-0.67l0.6,1.46l-1.59,0.66L132.83,467.08z"/>
		</g>
		<g>
			<polygon class="st1" points="143.43,465.99 145.52,465.5 150.85,471.25 149.29,464.62 151.14,464.18 153.38,473.69 
				151.39,474.16 145.93,468.32 147.51,475.07 145.67,475.51 			"/>
		</g>
		<g>
			<path class="st1" d="M157.45,460.91l1.73-0.12l0.09,1.57l-1.73,0.11L157.45,460.91z M160.08,473.21l-2.03,0.12l-0.61-9.76
				l2.03-0.12L160.08,473.21z"/>
		</g>
		<g>
			<polygon class="st1" points="171.27,463.34 173.39,463.51 169.3,473 167.38,472.83 164.84,462.85 167.03,463.02 168.56,470.58 
							"/>
		</g>
		<g>
			<polygon class="st1" points="185.95,467.99 180.95,466.7 180.43,468.71 185.03,469.89 184.6,471.54 180.01,470.36 179.38,472.79 
				184.61,474.14 184.18,475.83 177.01,473.99 179.45,464.53 186.39,466.32 			"/>
		</g>
		<g>
			<path class="st1" d="M198.23,471.21c0.26,0.3,0.45,0.63,0.54,1.01c0.09,0.31,0.12,0.62,0.1,0.95c-0.02,0.33-0.1,0.66-0.27,1.01
				c-0.2,0.42-0.5,0.78-0.89,1.08c-0.41,0.31-0.89,0.44-1.45,0.38c0.33,0.36,0.52,0.72,0.54,1.11c0.02,0.37-0.11,0.88-0.39,1.5
				l-0.28,0.59c-0.18,0.41-0.29,0.69-0.33,0.86c-0.05,0.24-0.03,0.47,0.11,0.65l-0.11,0.22l-2.05-0.95c0.04-0.23,0.07-0.4,0.1-0.53
				c0.07-0.27,0.16-0.54,0.28-0.8l0.38-0.84c0.25-0.57,0.32-0.98,0.22-1.26c-0.09-0.28-0.4-0.53-0.92-0.78l-1.79-0.83l-1.62,3.46
				l-1.82-0.83l4.14-8.86l4.23,1.97C197.55,470.63,197.97,470.93,198.23,471.21 M193.79,470.74l-1.11,2.38l1.99,0.93
				c0.4,0.19,0.71,0.28,0.96,0.28c0.43-0.01,0.76-0.26,0.99-0.75c0.25-0.53,0.25-0.99,0-1.32c-0.15-0.2-0.4-0.39-0.77-0.56
				L193.79,470.74z"/>
		</g>
		<g>
			<path class="st1" d="M202.43,480.49c-0.2,0.41-0.29,0.75-0.27,1.03c0.04,0.53,0.4,1.02,1.07,1.5c0.4,0.28,0.75,0.49,1.07,0.57
				c0.59,0.18,1.05,0.03,1.36-0.41c0.19-0.27,0.22-0.55,0.1-0.86c-0.14-0.3-0.41-0.69-0.84-1.15l-0.73-0.81
				c-0.71-0.78-1.15-1.41-1.31-1.85c-0.28-0.75-0.14-1.5,0.43-2.29c0.52-0.72,1.2-1.12,2.06-1.21c0.86-0.1,1.8,0.21,2.81,0.93
				c0.84,0.61,1.41,1.36,1.69,2.22c0.28,0.87,0.14,1.74-0.43,2.6l-1.61-1.14c0.31-0.49,0.35-0.99,0.09-1.48
				c-0.16-0.32-0.44-0.63-0.84-0.91c-0.44-0.31-0.85-0.49-1.24-0.49c-0.38-0.01-0.69,0.13-0.91,0.44c-0.2,0.29-0.23,0.59-0.06,0.92
				c0.1,0.21,0.37,0.57,0.82,1.08l1.16,1.33c0.51,0.58,0.83,1.1,0.97,1.56c0.2,0.71,0.05,1.43-0.45,2.13
				c-0.52,0.73-1.24,1.13-2.13,1.22c-0.91,0.07-1.87-0.26-2.9-0.99c-1.04-0.74-1.71-1.58-1.97-2.47c-0.26-0.9-0.09-1.77,0.49-2.59
				L202.43,480.49z"/>
		</g>
		<g>
			<path class="st1" d="M211.42,491.51l-1.48-1.4l6.73-7.09l1.47,1.4L211.42,491.51z M218.62,481.2l1.26,1.19l-1.09,1.14l-1.25-1.19
				L218.62,481.2z"/>
		</g>
		<g>
			<polygon class="st1" points="226.85,494.41 225.5,495.5 223.67,493.22 217.4,498.26 216.12,496.66 222.38,491.61 220.53,489.33 
				221.88,488.25 			"/>
		</g>
		<g>
			<polygon class="st1" points="232,506.48 229.48,501.97 227.67,502.97 229.97,507.12 228.49,507.94 226.19,503.79 223.99,505.01 
				226.62,509.75 225.08,510.6 221.49,504.13 230.03,499.38 233.51,505.64 			"/>
		</g>
		<g>
			<path class="st1" d="M230.98,516.07c-0.41,0.19-0.7,0.39-0.87,0.62c-0.31,0.43-0.35,1.04-0.14,1.83
				c0.12,0.48,0.27,0.85,0.45,1.13c0.34,0.52,0.79,0.69,1.33,0.55c0.31-0.07,0.51-0.28,0.61-0.59c0.1-0.33,0.13-0.81,0.1-1.44
				l-0.04-1.08c-0.04-1.07,0.03-1.81,0.18-2.26c0.28-0.75,0.87-1.25,1.8-1.49c0.85-0.22,1.63-0.1,2.36,0.37
				c0.72,0.48,1.24,1.32,1.56,2.52c0.27,1.01,0.23,1.95-0.11,2.8c-0.34,0.85-1.01,1.42-2,1.73l-0.5-1.9
				c0.55-0.18,0.89-0.54,1.01-1.08c0.07-0.37,0.05-0.78-0.08-1.24c-0.14-0.52-0.35-0.9-0.64-1.17c-0.28-0.26-0.61-0.33-0.97-0.24
				c-0.35,0.08-0.56,0.32-0.63,0.65c-0.07,0.23-0.09,0.68-0.07,1.36l0.05,1.77c0.02,0.77-0.06,1.38-0.25,1.82
				c-0.31,0.67-0.88,1.13-1.72,1.34c-0.87,0.23-1.66,0.08-2.41-0.43c-0.75-0.52-1.28-1.38-1.61-2.61c-0.31-1.24-0.29-2.29,0.08-3.15
				c0.37-0.86,1.05-1.42,2.03-1.68L230.98,516.07z"/>
		</g>
		<g>
			<path class="st1" d="M231.07,529.19l-0.38-1.99l9.58-1.85l0.39,1.99L231.07,529.19z M242.93,525l0.33,1.69l-1.54,0.3l-0.33-1.7
				L242.93,525z"/>
		</g>
		<g>
			<polygon class="st1" points="93.3,567.92 102.28,564.07 103.08,565.95 99.66,567.41 101.16,570.9 104.57,569.43 105.37,571.3 
				96.39,575.14 95.59,573.27 99.6,571.56 98.11,568.07 94.09,569.79 			"/>
		</g>
		<g>
			<path class="st1" d="M108.74,576.56l1.28,1.91l-6.21,8.29l-1.23-1.83l1.32-1.66l-2-2.99l-2.04,0.56l-1.18-1.77L108.74,576.56z
				 M103.61,579.82l1.39,2.08l2.52-3.15L103.61,579.82z"/>
		</g>
		<g>
			<polygon class="st1" points="114.75,584.42 116.16,585.89 110.35,591.42 113.72,594.94 112.45,596.16 107.68,591.14 			"/>
		</g>
		<g>
			<path class="st1" d="M117.7,600.89l-1.57-1.27l6.14-7.59l1.57,1.28L117.7,600.89z M124.08,590.04l1.35,1.09l-0.99,1.22
				l-1.35-1.09L124.08,590.04z"/>
		</g>
		<g>
			<path class="st1" d="M127.45,597.35c1.08-0.28,2.15-0.11,3.19,0.52c1.39,0.83,2.14,1.91,2.22,3.22c0.04,0.74-0.09,1.37-0.36,1.9
				l-1.75-1.04c0.13-0.46,0.18-0.87,0.12-1.17c-0.09-0.54-0.45-1-1.07-1.37c-0.62-0.37-1.26-0.41-1.94-0.12
				c-0.66,0.3-1.28,0.92-1.85,1.86c-0.56,0.93-0.8,1.75-0.69,2.45c0.11,0.7,0.44,1.22,1.02,1.57c0.6,0.36,1.17,0.44,1.73,0.22
				c0.31-0.11,0.64-0.35,1.03-0.71l1.74,1.05c-0.7,0.83-1.53,1.34-2.49,1.54c-0.97,0.2-1.87,0.04-2.75-0.48l-0.64,0.3
				c0.15,0.05,0.24,0.09,0.3,0.11c0.06,0.02,0.11,0.05,0.18,0.09c0.31,0.18,0.51,0.41,0.6,0.67c0.09,0.26,0.05,0.52-0.12,0.81
				c-0.21,0.34-0.52,0.53-0.92,0.56c-0.41,0.04-0.84-0.08-1.28-0.34c-0.19-0.13-0.4-0.3-0.62-0.55c-0.11-0.1-0.24-0.28-0.43-0.49
				l0.51-0.36c0.18,0.2,0.3,0.32,0.36,0.39c0.16,0.15,0.3,0.26,0.41,0.33c0.23,0.13,0.42,0.18,0.58,0.14
				c0.15-0.03,0.26-0.11,0.33-0.22c0.09-0.16,0.11-0.31,0.04-0.43c-0.07-0.13-0.17-0.23-0.29-0.31c-0.08-0.05-0.16-0.08-0.25-0.1
				c-0.08-0.03-0.18-0.05-0.29-0.09l-0.11-0.37l1.03-0.52c-0.89-0.53-1.44-1.39-1.65-2.57c-0.21-1.18,0.09-2.45,0.91-3.81
				C125.13,598.58,126.19,597.69,127.45,597.35"/>
		</g>
		<g>
			<path class="st1" d="M143.65,603.88l2.01,0.51l-1.5,5.82c-0.17,0.65-0.21,1.14-0.14,1.48c0.11,0.6,0.56,1,1.36,1.2
				c0.8,0.2,1.38,0.06,1.76-0.4c0.22-0.26,0.43-0.72,0.59-1.37l1.49-5.81l2.01,0.51l-1.5,5.82c-0.25,1.01-0.61,1.74-1.07,2.23
				c-0.84,0.88-2.09,1.1-3.72,0.68c-1.63-0.41-2.62-1.21-2.94-2.39c-0.16-0.64-0.11-1.46,0.14-2.46L143.65,603.88z"/>
		</g>
		<g>
			<polygon class="st1" points="155.5,606.64 157.64,606.8 161,613.89 161.51,607.09 163.4,607.22 162.68,616.97 160.64,616.82 
				157.18,609.62 156.67,616.53 154.78,616.39 			"/>
		</g>
		<g>
			<polygon class="st1" points="170.51,616.91 168.49,617.04 167.87,607.3 169.89,607.17 			"/>
		</g>
		<g>
			<polygon class="st1" points="180.41,605.42 182.49,605.01 181.16,615.24 179.26,615.62 174.09,606.7 176.23,606.27 
				179.78,613.12 			"/>
		</g>
		<g>
			<polygon class="st1" points="193.13,602.89 188.35,604.86 189.14,606.78 193.53,604.97 194.17,606.55 189.78,608.34 
				190.74,610.67 195.74,608.62 196.41,610.24 189.56,613.05 185.85,604.01 192.48,601.29 			"/>
		</g>
		<g>
			<path class="st1" d="M201.4,596.73c0.39-0.07,0.77-0.03,1.13,0.1c0.31,0.1,0.6,0.25,0.86,0.43c0.25,0.2,0.49,0.45,0.69,0.79
				c0.24,0.4,0.37,0.85,0.41,1.35c0.03,0.51-0.13,0.98-0.49,1.41c0.47-0.07,0.88-0.02,1.21,0.17c0.33,0.18,0.68,0.57,1.03,1.14
				l0.33,0.57c0.24,0.37,0.41,0.62,0.53,0.74c0.18,0.19,0.37,0.29,0.61,0.29l0.13,0.21l-1.93,1.17c-0.17-0.14-0.3-0.28-0.39-0.37
				c-0.18-0.21-0.35-0.44-0.51-0.69l-0.48-0.76c-0.33-0.53-0.64-0.83-0.92-0.9c-0.28-0.08-0.68,0.04-1.16,0.34l-1.7,1.04l1.99,3.27
				l-1.71,1.03l-5.08-8.33l4-2.44C200.52,596.97,201.02,596.77,201.4,596.73 M198.55,600.14l1.36,2.24l1.88-1.14
				c0.36-0.22,0.62-0.44,0.75-0.63c0.23-0.37,0.22-0.78-0.07-1.25c-0.31-0.5-0.67-0.75-1.11-0.73c-0.24,0.01-0.54,0.12-0.89,0.34
				L198.55,600.14z"/>
		</g>
		<g>
			<path class="st1" d="M212.15,597.32c0.34,0.29,0.65,0.45,0.94,0.5c0.52,0.08,1.08-0.16,1.7-0.7c0.37-0.33,0.63-0.62,0.8-0.91
				c0.31-0.54,0.27-1.02-0.11-1.43c-0.2-0.24-0.48-0.33-0.81-0.27c-0.33,0.05-0.77,0.24-1.32,0.55l-0.95,0.52
				c-0.93,0.53-1.62,0.82-2.1,0.87c-0.79,0.1-1.5-0.21-2.13-0.93c-0.58-0.65-0.82-1.42-0.73-2.27c0.1-0.87,0.62-1.71,1.54-2.53
				c0.78-0.7,1.63-1.08,2.54-1.16c0.91-0.09,1.73,0.25,2.45,1l-1.47,1.31c-0.42-0.43-0.89-0.56-1.42-0.42
				c-0.34,0.1-0.71,0.3-1.07,0.62c-0.4,0.35-0.66,0.72-0.75,1.09c-0.11,0.38-0.03,0.7,0.23,0.98c0.23,0.26,0.53,0.34,0.87,0.27
				c0.23-0.05,0.65-0.23,1.24-0.55l1.56-0.84c0.68-0.37,1.26-0.56,1.73-0.6c0.75-0.04,1.4,0.28,1.99,0.92
				c0.59,0.67,0.82,1.45,0.69,2.34c-0.12,0.91-0.66,1.77-1.6,2.61c-0.97,0.86-1.92,1.31-2.85,1.36c-0.93,0.05-1.74-0.3-2.42-1.06
				L212.15,597.32z"/>
		</g>
		<g>
			<polygon class="st1" points="223.28,590.05 221.96,591.61 214.55,585.23 215.87,583.69 			"/>
		</g>
		<g>
			<polygon class="st1" points="222.96,574.16 224.41,575.12 222.8,577.56 229.52,581.97 228.38,583.69 221.67,579.28 
				220.06,581.73 218.61,580.78 			"/>
		</g>
		<g>
			<polygon class="st1" points="226.84,565.67 227.76,563.55 232.05,568.99 235.41,570.45 234.59,572.32 231.23,570.85 
				224.29,571.51 225.25,569.31 229.96,569.15 			"/>
		</g>
		<g>
			<polygon class="st1" points="92.97,543.06 94.03,545.56 96.41,545.56 94.69,547.25 95.09,549.61 92.97,548.5 90.83,549.61 
				91.24,547.25 89.52,545.56 91.9,545.56 			"/>
		</g>
		<g>
			<polygon class="st1" points="237.05,543.06 238.12,545.56 240.5,545.56 238.78,547.25 239.18,549.61 237.05,548.5 234.93,549.61 
				235.33,547.25 233.61,545.56 235.98,545.56 			"/>
		</g>
		<g>
			<path class="st4" d="M156.02,583.58c-0.06,0.21-0.15,0.37-0.27,0.49c-0.17,0.17-0.38,0.31-0.65,0.37
				c-0.18,0.03-0.47,0.04-0.89,0.08v0.91h1.6v4.67h1.36v-6.75h-1.11C156.06,583.37,156.05,583.46,156.02,583.58"/>
		</g>
		<g>
			<path class="st4" d="M161.42,583.26c-0.66,0-1.21,0.23-1.63,0.67c-0.42,0.45-0.62,1.04-0.62,1.76c0,0.71,0.2,1.24,0.62,1.61
				c0.42,0.37,0.89,0.56,1.42,0.56c0.38,0,0.68-0.07,0.93-0.23c0.13-0.07,0.26-0.19,0.38-0.34c-0.02,0.51-0.08,0.9-0.19,1.18
				c-0.17,0.49-0.48,0.73-0.92,0.73c-0.22,0-0.41-0.06-0.55-0.19c-0.13-0.12-0.22-0.29-0.25-0.49h-1.32
				c0.05,0.58,0.28,1.01,0.69,1.31c0.4,0.31,0.86,0.47,1.37,0.47c1.06,0,1.79-0.53,2.19-1.58c0.22-0.55,0.32-1.22,0.32-2.05
				c0-0.83-0.12-1.53-0.33-2.04C163.17,583.72,162.45,583.26,161.42,583.26 M162.03,586.62c-0.16,0.1-0.34,0.16-0.52,0.16
				c-0.35,0-0.59-0.1-0.76-0.3c-0.17-0.19-0.25-0.51-0.25-0.9c0-0.48,0.12-0.82,0.38-1.03c0.17-0.12,0.36-0.18,0.59-0.18
				c0.31,0,0.55,0.11,0.73,0.34c0.19,0.22,0.27,0.52,0.27,0.9C162.47,586.09,162.34,586.42,162.03,586.62"/>
		</g>
		<g>
			<path class="st4" d="M166.74,583.26c-0.67,0-1.21,0.23-1.63,0.67c-0.42,0.45-0.62,1.04-0.62,1.76c0,0.71,0.21,1.24,0.62,1.61
				c0.41,0.37,0.89,0.56,1.44,0.56c0.36,0,0.67-0.07,0.91-0.23c0.15-0.07,0.28-0.19,0.39-0.34c-0.02,0.51-0.08,0.9-0.18,1.18
				c-0.18,0.49-0.48,0.73-0.93,0.73c-0.23,0-0.41-0.06-0.55-0.19c-0.13-0.12-0.22-0.29-0.24-0.49h-1.33
				c0.05,0.58,0.3,1.01,0.69,1.31c0.41,0.31,0.86,0.47,1.37,0.47c1.07,0,1.8-0.53,2.2-1.58c0.21-0.55,0.31-1.22,0.31-2.05
				c0-0.83-0.11-1.53-0.33-2.04C168.47,583.72,167.77,583.26,166.74,583.26 M167.35,586.62c-0.16,0.1-0.34,0.16-0.52,0.16
				c-0.34,0-0.59-0.1-0.76-0.3c-0.17-0.19-0.25-0.51-0.25-0.9c0-0.48,0.13-0.82,0.39-1.03c0.15-0.12,0.35-0.18,0.57-0.18
				c0.32,0,0.56,0.11,0.74,0.34c0.18,0.22,0.27,0.52,0.27,0.9C167.8,586.09,167.65,586.42,167.35,586.62"/>
		</g>
		<g>
			<path class="st4" d="M173.47,586.43c0.33-0.18,0.54-0.4,0.64-0.66c0.1-0.25,0.15-0.49,0.15-0.72c0-0.49-0.19-0.9-0.56-1.24
				c-0.37-0.35-0.9-0.53-1.57-0.53c-0.68,0-1.2,0.17-1.57,0.53c-0.37,0.34-0.55,0.76-0.55,1.24c0,0.23,0.05,0.46,0.15,0.72
				c0.09,0.26,0.31,0.49,0.64,0.71c-0.34,0.15-0.59,0.39-0.77,0.69c-0.16,0.31-0.25,0.66-0.25,1.04c0,0.56,0.19,1.05,0.58,1.46
				c0.4,0.4,0.97,0.59,1.72,0.59c0.76,0,1.35-0.2,1.77-0.59c0.43-0.4,0.63-0.9,0.63-1.46c0-0.38-0.08-0.73-0.25-1.04
				C174.05,586.87,173.8,586.62,173.47,586.43 M171.5,584.58c0.15-0.15,0.35-0.23,0.63-0.23c0.27,0,0.48,0.09,0.62,0.23
				c0.16,0.15,0.24,0.35,0.24,0.62c0,0.24-0.07,0.45-0.24,0.62c-0.14,0.14-0.35,0.23-0.62,0.23c-0.27,0-0.47-0.09-0.63-0.23
				c-0.15-0.17-0.23-0.37-0.23-0.62C171.27,584.93,171.35,584.73,171.5,584.58 M172.85,588.89c-0.18,0.18-0.42,0.29-0.72,0.29
				c-0.31,0-0.55-0.1-0.72-0.29c-0.17-0.17-0.25-0.44-0.25-0.76c0-0.35,0.08-0.61,0.26-0.79c0.18-0.18,0.41-0.27,0.72-0.27
				c0.3,0,0.53,0.09,0.71,0.27c0.17,0.18,0.27,0.44,0.27,0.79C173.1,588.45,173.01,588.71,172.85,588.89"/>
		</g>
		<g>
			<rect x="141.2" y="570.28" class="st4" width="1.22" height="1.11"/>
		</g>
		<g>
			<rect x="141.09" y="572.17" class="st4" width="1.43" height="6.88"/>
		</g>
		<g>
			<path class="st4" d="M148.56,575.63c-0.26-0.21-0.65-0.37-1.17-0.49l-1.19-0.29c-0.45-0.12-0.75-0.21-0.89-0.28
				c-0.21-0.13-0.33-0.32-0.33-0.55c0-0.28,0.12-0.48,0.33-0.63c0.23-0.15,0.52-0.22,0.89-0.22c0.34,0,0.61,0.05,0.84,0.17
				c0.34,0.17,0.52,0.48,0.54,0.88h1.38c-0.03-0.73-0.3-1.28-0.81-1.68c-0.52-0.38-1.12-0.57-1.85-0.57c-0.87,0-1.52,0.21-1.98,0.61
				c-0.44,0.41-0.66,0.92-0.66,1.54c0,0.68,0.23,1.17,0.69,1.5c0.28,0.18,0.77,0.36,1.47,0.52l0.73,0.17
				c0.43,0.08,0.75,0.19,0.94,0.31c0.2,0.11,0.3,0.3,0.3,0.52c0,0.39-0.21,0.67-0.61,0.8c-0.21,0.08-0.48,0.11-0.81,0.11
				c-0.58,0-0.97-0.14-1.21-0.43c-0.13-0.16-0.22-0.39-0.25-0.71h-1.38c0,0.72,0.25,1.28,0.77,1.69c0.51,0.42,1.21,0.62,2.11,0.62
				c0.88,0,1.55-0.2,2.03-0.62c0.49-0.43,0.72-0.94,0.72-1.58C149.17,576.42,148.98,575.95,148.56,575.63"/>
		</g>
		<g>
			<polygon class="st4" points="155.25,572.16 149.67,572.16 149.67,573.39 151.73,573.39 151.73,579.05 153.19,579.05 
				153.19,573.39 155.25,573.39 			"/>
		</g>
		<g>
			<path class="st4" d="M156.4,579.05l0.49-1.42h2.54l0.43,1.42h1.56l-2.43-6.88h-1.64l-2.45,6.88H156.4z M158.14,573.74l0.87,2.7
				h-1.75L158.14,573.74z"/>
		</g>
		<g>
			<polygon class="st4" points="167.86,579.05 167.86,572.17 166.51,572.17 166.51,576.96 163.77,572.17 162.27,572.17 
				162.27,579.05 163.61,579.05 163.61,574.16 166.42,579.05 			"/>
		</g>
		<g>
			<path class="st4" d="M173.84,575.36c0.23-0.13,0.4-0.26,0.53-0.4c0.21-0.25,0.32-0.59,0.32-1c0-0.41-0.11-0.76-0.32-1.07
				c-0.35-0.46-0.96-0.71-1.8-0.72h-3.34v6.88h3.12c0.35,0,0.68-0.03,0.98-0.1c0.29-0.05,0.56-0.17,0.77-0.34
				c0.21-0.14,0.37-0.33,0.5-0.53c0.21-0.34,0.31-0.7,0.31-1.11c0-0.39-0.09-0.72-0.28-0.99
				C174.47,575.68,174.19,575.48,173.84,575.36 M170.6,573.36h1.52c0.33,0,0.6,0.03,0.82,0.11c0.24,0.1,0.37,0.32,0.37,0.64
				c0,0.29-0.1,0.48-0.28,0.6c-0.2,0.12-0.44,0.18-0.73,0.18h-1.7V573.36z M173,577.73c-0.16,0.08-0.41,0.13-0.7,0.13h-1.7v-1.83
				h1.72c0.3,0,0.53,0.04,0.69,0.12c0.29,0.13,0.45,0.38,0.45,0.74C173.45,577.29,173.3,577.58,173,577.73"/>
		</g>
		<g>
			<path class="st4" d="M180.18,576.39c0,0.48-0.06,0.83-0.16,1.03c-0.17,0.39-0.56,0.6-1.14,0.6c-0.59,0-0.96-0.2-1.14-0.6
				c-0.12-0.21-0.17-0.55-0.17-1.03v-4.23h-1.46v4.23c0,0.74,0.11,1.3,0.34,1.71c0.41,0.75,1.24,1.13,2.43,1.13
				c1.19,0,2-0.37,2.42-1.13c0.23-0.41,0.33-0.97,0.33-1.71v-4.23h-1.46V576.39z"/>
		</g>
		<g>
			<polygon class="st4" points="184.45,572.16 183.02,572.16 183.02,579.05 187.88,579.05 187.88,577.81 184.45,577.81 			"/>
		</g>
	</g>
	<rect x="595.74" y="461.42" class="st4" width="3.74" height="157.16"/>
	<g>
		<text transform="matrix(1 -2.259959e-03 2.259959e-03 1 294.1624 543.9875)" class="st1 st6 st7">HALİÇ</text>
		<text transform="matrix(1 0 0 1 296.8892 605.5234)" class="st1 st6 st8">ÜNİVERSİTESİ</text>
	</g>
</g>
</svg>
