<svg xmlns="http://www.w3.org/2000/svg" width="34.14" height="34.209" viewBox="0 0 34.14 34.209">
  <g id="book_2_" data-name="book (2)" transform="translate(-0.513)">
    <path id="Path_138" data-name="Path 138" d="M34.653,32.184,26.271.7l-6.21,1.459V0H.513V34.209H20.061V10.926l6.185,23.233ZM18.06,2V23.7H11.288V2ZM9.286,27.926H2.514V25.7H9.286Zm2-2.229H18.06v2.229H11.288ZM9.286,2V23.7H2.514V2ZM2.514,32.207V29.928H9.286v2.279Zm8.773,0V29.928H18.06v2.279ZM24.836,3.089l7.352,27.617L27.68,31.766,20.328,4.148Z"/>
    <path id="Path_139" data-name="Path 139" d="M64.657,65.158h2.115v2H64.657Z" transform="translate(-59.858 -60.805)"/>
    <path id="Path_140" data-name="Path 140" d="M196.571,65.158h2.115v2h-2.115Z" transform="translate(-182.959 -60.805)"/>
  </g>
</svg>
