<?xml version="1.0" encoding="utf-8"?>
<!-- Generator: Adobe Illustrator 24.2.1, SVG Export Plug-In . SVG Version: 6.00 Build 0)  -->
<svg version="1.1" id="Capa_1" xmlns="http://www.w3.org/2000/svg" xmlns:xlink="http://www.w3.org/1999/xlink" x="0px" y="0px"
	 viewBox="0 0 512 512" style="enable-background:new 0 0 512 512;" xml:space="preserve">
<style type="text/css">
	.st0{fill:#FFFFFF;}
</style>
<g id="D_1_">
	<g>
		<path class="st0" d="M237.8,512H46V0h186.7c40.5,0,70.9,3.2,92.9,9.8l0.1,0C430.1,41.6,466,150.4,466,260.6
			c0,125.1-49.9,210.6-140.4,240.5C303.1,508.4,274.4,512,237.8,512L237.8,512z M76,482h161.8c33,0,59.4-3.2,78.5-9.4
			c99-32.7,119.8-133.4,119.8-212c0-69.4-15.5-190.5-119.1-222.1C298,32.9,269.7,30,232.7,30H76V482z M225.1,431.1h-85.1V81.2h57.2
			c39.7,0,66,1.6,80.4,5c77.2,17.3,91.3,91.8,91.3,170.2c0,75.1-9.5,150.7-83.3,169.7C272.7,429.5,252.9,431.1,225.1,431.1
			L225.1,431.1z M169.9,401.1h55.1c24.9,0,42.7-1.4,53-4.1l0.1,0c50.4-13,60.8-65.7,60.8-140.7c0-89.3-19.7-130.1-67.9-140.9l-0.1,0
			c-8.2-1.9-27.7-4.2-73.7-4.2h-27.2V401.1z"/>
	</g>
</g>
</svg>
