<?xml version="1.0" encoding="utf-8"?>
<!-- Generator: Adobe Illustrator 24.2.1, SVG Export Plug-In . SVG Version: 6.00 Build 0)  -->
<svg version="1.1" id="Capa_1" xmlns="http://www.w3.org/2000/svg" xmlns:xlink="http://www.w3.org/1999/xlink" x="0px" y="0px"
	 viewBox="0 0 496 496" style="enable-background:new 0 0 496 496;" xml:space="preserve">
<style type="text/css">
	.st0{fill:#FFFFFF;}
</style>
<g>
	<g>
		<path class="st0" d="M448,88c0-49.3-87.8-88-200-88S48,38.7,48,88c0,2.7,0.3,5.4,0.8,8H48v312c0,49.3,87.8,88,200,88
			s200-38.7,200-88V96h-0.8C447.7,93.4,448,90.7,448,88z M432,408c0,34.8-73.9,72-184,72S64,442.8,64,408v-44.9
			C94.2,394.5,164.4,416,248,416s153.8-21.5,184-52.9V408z M432,328c0,34.8-73.9,72-184,72S64,362.8,64,328v-44.9
			C94.2,314.5,164.4,336,248,336s153.8-21.5,184-52.9V328z M432,248c0,34.8-73.9,72-184,72S64,282.8,64,248v-44.9
			C94.2,234.5,164.4,256,248,256s153.8-21.5,184-52.9V248z M432,168c0,34.8-73.9,72-184,72S64,202.8,64,168v-44.9
			C94.2,154.5,164.4,176,248,176s153.8-21.5,184-52.9V168z M248,160c-110.1,0-184-37.2-184-72s73.9-72,184-72s184,37.2,184,72
			S358.1,160,248,160z"/>
	</g>
</g>
</svg>
