<svg xmlns="http://www.w3.org/2000/svg" width="45.697" height="42.835" viewBox="0 0 45.697 42.835">
  <g id="library_1_" data-name="library (1)" transform="translate(0 -16.034)">
    <path id="Path_1091" data-name="Path 1091" d="M265.1,56.033a6.247,6.247,0,1,0,6.247,6.247A6.254,6.254,0,0,0,265.1,56.033Zm0,10.709a4.462,4.462,0,1,1,4.462-4.462A4.467,4.467,0,0,1,265.1,66.742Z" transform="translate(-235.753 -36.43)" fill="#fff"/>
    <path id="Path_1092" data-name="Path 1092" d="M44.881,37.267l-6.848-6.848A9.817,9.817,0,1,0,21.78,32.1H3.575a.893.893,0,0,0-.7.333,5.329,5.329,0,0,0,0,6.473.893.893,0,0,0,.7.333H5.653a5.5,5.5,0,0,0,0,3.57H1.79a.893.893,0,0,0-.7.333,5.329,5.329,0,0,0,0,6.473.893.893,0,0,0,.7.333H2.976a5.348,5.348,0,0,0,.8,5.022.893.893,0,0,0,.7.333H9.822v2.677a.892.892,0,0,0,1.523.631l2.046-2.046,2.046,2.046a.892.892,0,0,0,1.523-.631V55.3H30.347a.892.892,0,0,0,0-1.785H29.92a3.671,3.671,0,0,1,0-3.57h.427a.892.892,0,0,0,0-1.785h-3.1a3.671,3.671,0,0,1,0-3.57h5.781a.892.892,0,1,0,0-1.785H32.6a3.671,3.671,0,0,1,0-3.57h.427a.892.892,0,0,0,0-1.785h-4a3.553,3.553,0,0,1-.465-1.816q.387.031.783.031a9.756,9.756,0,0,0,4.8-1.256l6.8,6.8a2.785,2.785,0,1,0,3.939-3.939Zm-29.7,18.555-1.154-1.154a.893.893,0,0,0-1.262,0l-1.154,1.154v-3.2h3.57v3.2Zm12.786-2.307h-11v-.892h.892a.892.892,0,1,0,0-1.785H8.93a.892.892,0,1,0,0,1.785h.892v.892H4.933a3.668,3.668,0,0,1,0-3.57H27.963A5.5,5.5,0,0,0,27.963,53.515ZM25.286,48.16H2.256a3.671,3.671,0,0,1,0-3.57h23.03A5.5,5.5,0,0,0,25.286,48.16Zm5.354-5.354H7.61a3.671,3.671,0,0,1,0-3.57H30.64A5.5,5.5,0,0,0,30.64,42.806Zm-3.568-5.354H4.041a3.671,3.671,0,0,1,0-3.57H23.709a9.782,9.782,0,0,0,3.08,1.446A5.479,5.479,0,0,0,27.072,37.451Zm-5.757-11.6a8.032,8.032,0,1,1,8.032,8.032,8.041,8.041,0,0,1-8.032-8.032Zm22.3,14.094a1,1,0,0,1-1.415,0l-6.565-6.565a9.9,9.9,0,0,0,1.4-1.433l6.583,6.583a1,1,0,0,1,0,1.415Z" transform="translate(0)" fill="#fff"/>
  </g>
</svg>
