<?xml version="1.0" encoding="utf-8"?>
<!-- Generator: Adobe Illustrator 24.2.1, SVG Export Plug-In . SVG Version: 6.00 Build 0)  -->
<svg version="1.1" id="Capa_1" xmlns="http://www.w3.org/2000/svg" xmlns:xlink="http://www.w3.org/1999/xlink" x="0px" y="0px"
	 viewBox="0 0 512 512" style="enable-background:new 0 0 512 512;" xml:space="preserve">
<style type="text/css">
	.st0{fill:#FFFFFF;}
</style>
<g>
	<g>
		<g>
			<path class="st0" d="M485.5,211.1c-15-15.1-34.3-24.3-55.1-26.5c0.4-4.4,0.5-8.8,0.2-13.3c-2.7-45.7-40.6-82-86.3-82.7
				c-22.1-0.3-43,7.4-59.3,21.7c-21.2-38.5-62.6-62.6-107.4-61.2c-1.5,0-3,0.1-4.7,0.2c-5.5,0.4-9.7,5.2-9.3,10.7
				c0.4,5.5,5.2,9.7,10.7,9.3c1.4-0.1,2.7-0.2,3.9-0.2c41.5-1.3,79.4,23.7,94.6,62.3c1.3,3.3,4.3,5.7,7.8,6.2
				c3.5,0.5,7.1-0.8,9.3-3.6c13.2-16.5,33-25.7,54-25.4c35.3,0.6,64.6,28.6,66.6,63.9c0.4,6.5-0.2,13-1.7,19.4
				c-0.8,3.5,0.4,7.3,3.1,9.7c2.6,2.3,5.5,2.5,8.7,2.5c19.1,0,37.1,7.5,50.6,21.1c13.5,13.6,20.8,31.6,20.7,50.7
				c-0.3,39-32.7,70.7-72.3,70.7h-0.5l0-77v0c0-5.5-4.5-10-10-10H376v-24.4c0-5.5-4.5-10-10-10h-76.7c-12.8,0-25,5.4-33.6,14.8
				c-8.6-9.4-20.8-14.8-33.6-14.8h-76.7c-5.5,0-10,4.5-10,10v24.4h-33.7c-5.5,0-10,4.5-10,10v0l0,77c-19.3-0.2-37.5-7.9-51.2-21.8
				C27,311.1,19.8,293.2,20,274.4c0.5-34.1,25.2-63.2,58.7-69.1c2.8-0.5,5.2-2.1,6.7-4.5s1.9-5.3,1.2-8c-2.6-9.8-3.7-20-3.3-30.2
				c1-21.1,8.6-40.9,22.1-57.3c3.5-4.3,2.9-10.6-1.4-14.1c-4.3-3.5-10.6-2.9-14.1,1.4c-16.2,19.8-25.4,43.7-26.6,69.1
				c-0.4,8.9,0.2,17.7,1.7,26.3c-37.7,11.2-64.6,46-65.1,86.1c-0.3,24.2,9,47.2,26.3,64.8c17.5,17.7,40.7,27.6,65.4,27.7v86.4
				c0,5.5,4.5,10,10,10h307.5c5.5,0,10-4.5,10-10v-86.3h0.5c50.5,0,91.9-40.6,92.3-90.5C512.2,251.6,502.8,228.5,485.5,211.1
				L485.5,211.1z M289.3,245.2H356v156.4h-66.7c-8.4,0-16.5,2.3-23.6,6.6l0-149.2l4.3-5C274.9,248.4,281.9,245.2,289.3,245.2
				L289.3,245.2z M222.2,245.2c7.4,0,14.4,3.2,19.3,8.8l4.3,5v149.2c-7-4.3-15.2-6.6-23.6-6.6h-66.7l0-156.4L222.2,245.2z
				 M111.7,279.6h23.7l0,132c0,5.5,4.5,10,10,10h76.7c7.3,0,14.4,3.2,19.3,8.8l4.3,5v7.5h-134L111.7,279.6z M399.3,442.9H265.7v-7.5
				l4.4-5c4.7-5.5,11.9-8.7,19.2-8.7H366c5.5,0,10-4.5,10-10v-132h23.3V442.9z"/>
			<path class="st0" d="M122.8,74.9c2.1,5,8,7.5,13.1,5.4c5-2.1,7.5-8,5.4-13.1c-2.1-5-8-7.5-13.1-5.4
				C123.2,63.9,120.8,69.8,122.8,74.9z"/>
			<path class="st0" d="M297.8,308.7h28.3c5.5,0,10-4.5,10-10s-4.5-10-10-10h-28.3c-5.5,0-10,4.5-10,10S292.2,308.7,297.8,308.7z"/>
			<path class="st0" d="M297.8,357.6h28.3c5.5,0,10-4.5,10-10s-4.5-10-10-10h-28.3c-5.5,0-10,4.5-10,10S292.2,357.6,297.8,357.6z"/>
			<path class="st0" d="M187.9,308.7h27.3c5.5,0,10-4.5,10-10s-4.5-10-10-10h-27.3c-5.5,0-10,4.5-10,10S182.4,308.7,187.9,308.7z"/>
			<path class="st0" d="M187.9,357.6h27.3c5.5,0,10-4.5,10-10s-4.5-10-10-10h-27.3c-5.5,0-10,4.5-10,10S182.4,357.6,187.9,357.6z"/>
		</g>
	</g>
</g>
</svg>
